<svg width="257.70465395806946" height="1012.9624052948" viewBox="35.60991250922129 20.26477352600093 257.70465395806946 1012.9624052948" fill="none" xmlns="http://www.w3.org/2000/svg">
<g clip-path="url(#clip0_183287_1716)">
<path d="M90.0693 330.588L101.991 334.101L109.016 310.258M132.513 307.464C141.891 324.677 127.619 348.628 122.373 356.437C121.806 357.281 121.522 357.703 121.031 358.11C120.648 358.426 120.031 358.763 119.557 358.913C118.949 359.105 118.44 359.115 117.423 359.133C108.018 359.307 80.155 358.312 70.7769 341.099L62.8255 326.505C61.1448 323.42 60.3044 321.878 60.0866 320.277C59.8941 318.863 60.049 317.423 60.5378 316.082C61.0911 314.564 62.2402 313.236 64.5385 310.579L81.0001 291.549C81.6384 290.811 81.9574 290.442 82.3377 290.158C82.6747 289.906 83.0467 289.703 83.4413 289.557C83.8866 289.391 84.3695 289.323 85.3355 289.187L110.251 285.674C113.729 285.183 115.469 284.938 117.044 285.296C118.436 285.612 119.729 286.263 120.813 287.191C122.04 288.242 122.881 289.785 124.561 292.87L132.513 307.464Z" stroke="#203152" stroke-opacity="0.05" stroke-width="8.78799" stroke-linecap="round" stroke-linejoin="round"></path>
</g>
<g clip-path="url(#clip1_183287_1716)">
<path d="M146.069 992.588L157.991 996.101L165.016 972.258M188.513 969.464C197.891 986.677 183.619 1010.63 178.373 1018.44C177.806 1019.28 177.522 1019.7 177.031 1020.11C176.648 1020.43 176.031 1020.76 175.557 1020.91C174.949 1021.11 174.44 1021.11 173.423 1021.13C164.018 1021.31 136.155 1020.31 126.777 1003.1L118.826 988.505C117.145 985.42 116.304 983.878 116.087 982.277C115.894 980.863 116.049 979.423 116.538 978.082C117.091 976.564 118.24 975.236 120.539 972.579L137 953.549C137.638 952.811 137.957 952.443 138.338 952.158C138.675 951.906 139.047 951.703 139.441 951.557C139.887 951.391 140.369 951.323 141.336 951.187L166.251 947.674C169.729 947.183 171.469 946.938 173.044 947.296C174.436 947.612 175.729 948.263 176.813 949.192C178.04 950.242 178.881 951.785 180.561 954.87L188.513 969.464Z" stroke="#203152" stroke-opacity="0.05" stroke-width="8.78799" stroke-linecap="round" stroke-linejoin="round"></path>
</g>
<g clip-path="url(#clip2_183287_1716)">
<path d="M63.244 529.649L67.4349 538.748L85.632 530.366M99.79 543.145C94.3167 557.967 72.2105 562.008 64.6888 562.965C63.8755 563.069 63.4686 563.12 62.9616 563.038C62.5663 562.973 62.0347 562.777 61.6924 562.569C61.2533 562.302 60.9777 561.999 60.4269 561.391C55.3327 555.775 41.1588 538.336 46.6321 523.515L51.2728 510.948C52.2537 508.292 52.7442 506.964 53.6002 505.983C54.3564 505.116 55.3124 504.446 56.3854 504.032C57.6001 503.562 59.0159 503.555 61.8474 503.541L82.1282 503.439C82.9146 503.435 83.3076 503.433 83.682 503.513C84.0138 503.584 84.3341 503.702 84.6322 503.864C84.9688 504.047 85.2661 504.304 85.8612 504.818L101.208 518.076C103.351 519.928 104.422 520.853 105.04 521.999C105.586 523.012 105.878 524.142 105.889 525.292C105.902 526.594 105.412 527.922 104.431 530.579L99.79 543.145Z" stroke="#203152" stroke-opacity="0.05" stroke-width="7.08333" stroke-linecap="round" stroke-linejoin="round"></path>
</g>
<g clip-path="url(#clip3_183287_1716)">
<path d="M183.046 595.826L188.413 607.035L210.832 596.301M228.631 611.892C222.115 630.38 194.767 635.801 185.454 637.128C184.447 637.271 183.943 637.343 183.312 637.25C182.821 637.177 182.158 636.944 181.729 636.692C181.18 636.369 180.832 635.998 180.138 635.254C173.714 628.381 155.809 607.01 162.325 588.523L167.85 572.848C169.017 569.535 169.601 567.878 170.645 566.645C171.567 565.556 172.741 564.707 174.064 564.173C175.562 563.569 177.318 563.534 180.831 563.464L205.988 562.963C206.963 562.943 207.451 562.934 207.917 563.026C208.329 563.108 208.729 563.248 209.102 563.444C209.523 563.664 209.896 563.977 210.644 564.604L229.927 580.768C232.619 583.025 233.966 584.153 234.753 585.563C235.45 586.809 235.832 588.206 235.867 589.633C235.907 591.248 235.323 592.904 234.156 596.218L228.631 611.892Z" stroke="#203152" stroke-opacity="0.05" stroke-width="8.78799" stroke-linecap="round" stroke-linejoin="round"></path>
</g>
<g clip-path="url(#clip4_183287_1716)">
<path d="M245.069 823.588L256.991 827.101L264.016 803.258M287.513 800.464C296.891 817.677 282.619 841.628 277.373 849.436C276.806 850.281 276.522 850.703 276.031 851.109C275.648 851.426 275.031 851.762 274.557 851.912C273.949 852.105 273.44 852.114 272.423 852.133C263.018 852.307 235.155 851.312 225.777 834.099L217.826 819.505C216.145 816.42 215.304 814.877 215.087 813.277C214.894 811.863 215.049 810.423 215.538 809.082C216.091 807.564 217.24 806.236 219.539 803.579L236 784.549C236.638 783.811 236.957 783.442 237.338 783.158C237.675 782.906 238.047 782.703 238.441 782.557C238.887 782.391 239.369 782.323 240.336 782.187L265.251 778.674C268.729 778.183 270.469 777.938 272.044 778.296C273.436 778.612 274.729 779.263 275.813 780.191C277.04 781.242 277.881 782.785 279.561 785.87L287.513 800.464Z" stroke="#203152" stroke-opacity="0.05" stroke-width="8.78799" stroke-linecap="round" stroke-linejoin="round"></path>
</g>
<path d="M217.375 519.625H217.398M217.375 533.375C224.969 533.375 231.125 527.219 231.125 519.625C231.125 512.031 224.969 505.875 217.375 505.875C209.781 505.875 203.625 512.031 203.625 519.625C203.625 520.252 203.667 520.87 203.748 521.474C203.882 522.469 203.949 522.967 203.904 523.282C203.857 523.61 203.797 523.786 203.636 524.075C203.481 524.353 203.207 524.626 202.661 525.173L190.949 536.884C190.553 537.281 190.354 537.479 190.213 537.71C190.087 537.915 189.994 538.139 189.938 538.373C189.875 538.636 189.875 538.917 189.875 539.477V543.458C189.875 544.742 189.875 545.384 190.125 545.874C190.344 546.305 190.695 546.655 191.126 546.875C191.616 547.125 192.258 547.125 193.542 547.125H197.523C198.083 547.125 198.364 547.125 198.627 547.062C198.861 547.006 199.085 546.913 199.29 546.787C199.521 546.646 199.719 546.447 200.116 546.051L211.827 534.34C212.374 533.793 212.647 533.519 212.925 533.364C213.214 533.203 213.39 533.143 213.718 533.096C214.033 533.051 214.531 533.118 215.526 533.252C216.13 533.333 216.748 533.375 217.375 533.375Z" stroke="#203152" stroke-opacity="0.05" stroke-width="4.58333" stroke-linecap="round" stroke-linejoin="round"></path>
<g clip-path="url(#clip5_183287_1716)">
<path d="M263.223 627.207L263.238 627.178M281.012 636.223C285.991 626.398 282.063 614.397 272.239 609.418C262.414 604.439 250.413 608.367 245.434 618.192C240.455 628.016 244.383 640.017 254.207 644.996C255.019 645.408 255.845 645.758 256.681 646.049C258.056 646.529 258.743 646.769 259.121 647.033C259.514 647.309 259.703 647.502 259.972 647.9C260.229 648.283 260.403 648.816 260.752 649.882L268.225 672.713C268.478 673.485 268.604 673.872 268.81 674.207C268.993 674.504 269.222 674.77 269.488 674.996C269.787 675.251 270.15 675.435 270.875 675.802L276.026 678.413C277.686 679.254 278.517 679.675 279.314 679.673C280.017 679.672 280.7 679.448 281.267 679.034C281.911 678.564 282.332 677.734 283.174 676.073L285.784 670.922C286.152 670.197 286.335 669.835 286.427 669.452C286.507 669.113 286.534 668.763 286.506 668.415C286.474 668.023 286.348 667.637 286.095 666.864L278.622 644.033C278.273 642.967 278.099 642.434 278.08 641.973C278.061 641.493 278.099 641.226 278.254 640.771C278.401 640.334 278.814 639.734 279.64 638.535C280.142 637.806 280.601 637.035 281.012 636.223Z" stroke="#203152" stroke-opacity="0.05" stroke-width="6.64776" stroke-linecap="round" stroke-linejoin="round"></path>
</g>
<g clip-path="url(#clip6_183287_1716)">
<path d="M259.548 569.134L267.235 571.399L271.765 556.025M286.916 554.223C292.963 565.322 283.761 580.766 280.378 585.802C280.012 586.346 279.829 586.618 279.512 586.88C279.266 587.084 278.867 587.301 278.562 587.398C278.17 587.522 277.842 587.528 277.186 587.54C271.121 587.653 253.155 587.011 247.108 575.912L241.98 566.501C240.897 564.512 240.355 563.517 240.214 562.485C240.09 561.573 240.19 560.645 240.505 559.78C240.862 558.801 241.603 557.945 243.085 556.232L253.7 543.961C254.111 543.485 254.317 543.247 254.562 543.064C254.78 542.901 255.019 542.77 255.274 542.676C255.561 542.569 255.872 542.526 256.495 542.438L272.561 540.172C274.804 539.856 275.926 539.698 276.942 539.929C277.839 540.133 278.673 540.552 279.372 541.151C280.163 541.829 280.705 542.823 281.789 544.812L286.916 554.223Z" stroke="#203152" stroke-opacity="0.05" stroke-width="5.66667" stroke-linecap="round" stroke-linejoin="round"></path>
</g>
<g clip-path="url(#clip7_183287_1716)">
<path d="M68.2658 152.885L80.2486 156.416L87.31 132.45M110.928 129.642C120.355 146.944 106.009 171.018 100.736 178.867C100.166 179.716 99.8808 180.14 99.387 180.549C99.0021 180.867 98.3816 181.205 97.9055 181.356C97.2946 181.549 96.7833 181.559 95.761 181.578C86.3068 181.753 58.3003 180.752 48.8738 163.451L40.8814 148.781C39.1919 145.68 38.3473 144.13 38.1283 142.521C37.9348 141.099 38.0905 139.652 38.5818 138.304C39.138 136.779 40.2931 135.443 42.6032 132.773L59.1498 113.645C59.7913 112.903 60.1119 112.532 60.4943 112.246C60.833 111.993 61.2069 111.789 61.6035 111.642C62.0511 111.476 62.5365 111.407 63.5075 111.27L88.5514 107.739C92.0479 107.246 93.7962 106.999 95.3795 107.359C96.7785 107.677 98.0788 108.331 99.1682 109.264C100.402 110.321 101.246 111.871 102.936 114.972L110.928 129.642Z" stroke="#203152" stroke-opacity="0.05" stroke-width="8.83333" stroke-linecap="round" stroke-linejoin="round"></path>
</g>
<path d="M65.2974 739.5L77.4494 742.104L82.659 717.8M105.879 713.245C116.527 729.703 104.099 754.66 99.456 762.842C98.954 763.726 98.7028 764.169 98.2436 764.611C97.8856 764.956 97.2953 765.338 96.8343 765.523C96.2428 765.76 95.7362 765.808 94.7235 765.903C85.3577 766.785 57.4991 767.892 46.8513 751.434L37.8234 737.48C35.9151 734.53 34.961 733.055 34.6232 731.475C34.3247 730.08 34.3708 728.632 34.7572 727.259C35.1946 725.703 36.2405 724.292 38.3321 721.47L53.3139 701.254C53.8948 700.47 54.1851 700.079 54.5429 699.766C54.8599 699.489 55.2156 699.259 55.598 699.084C56.0297 698.885 56.506 698.781 57.4591 698.572L82.039 693.193C85.4708 692.442 87.1867 692.066 88.7844 692.305C90.196 692.515 91.535 693.066 92.6856 693.911C93.9884 694.866 94.9425 696.341 96.8508 699.29L105.879 713.245Z" stroke="#203152" stroke-opacity="0.05" stroke-width="8.78799" stroke-linecap="round" stroke-linejoin="round"></path>
<g clip-path="url(#clip8_183287_1716)">
<path d="M64.5943 255.885C65.4746 257.986 64.6913 260.316 62.8448 261.09C60.9983 261.864 58.7877 260.787 57.9074 258.686C57.0271 256.585 57.8104 254.254 59.6569 253.481C61.5034 252.707 63.714 253.783 64.5943 255.885Z" fill="#203152" fill-opacity="0.05"></path>
<path d="M77.9673 250.282C78.8477 252.383 78.0644 254.713 76.2178 255.487C74.3713 256.261 72.1608 255.184 71.2805 253.083C70.4001 250.982 71.1834 248.651 73.03 247.878C74.8765 247.104 77.087 248.18 77.9673 250.282Z" fill="#203152" fill-opacity="0.05"></path>
<path d="M91.3414 244.679C92.2217 246.78 91.4384 249.11 89.5919 249.884C87.7453 250.658 85.5348 249.582 84.6545 247.48C83.7742 245.379 84.5574 243.049 86.404 242.275C88.2506 241.501 90.461 242.578 91.3414 244.679Z" fill="#203152" fill-opacity="0.05"></path>
<path d="M80.8442 275.911L70.8139 280.113C61.3572 284.075 56.6289 286.056 52.2905 283.944C47.9521 281.831 45.6979 276.451 41.1896 265.69C36.6813 254.929 34.4272 249.548 35.9644 244.975C37.5016 240.401 42.2299 238.42 51.6866 234.458L78.4341 223.252C87.8907 219.29 92.6189 217.309 96.9574 219.421C101.296 221.534 103.55 226.914 108.058 237.675C112.567 248.436 114.821 253.817 113.283 258.39C111.746 262.964 107.018 264.945 97.5614 268.907L94.2179 270.308" stroke="#203152" stroke-opacity="0.05" stroke-width="6.625" stroke-linecap="round"></path>
<path d="M44.9996 237.259L41.8117 229.65C41.2686 228.354 40.8311 227.043 40.4951 225.729M78.9101 207.399C72.5582 198.486 61.6562 194.502 52.3087 198.418C46.3674 200.907 42.2607 206.083 40.544 212.292" stroke="#203152" stroke-opacity="0.05" stroke-width="6.625" stroke-linecap="round"></path>
</g>
<path d="M113.625 848C113.625 850.278 112.002 852.125 110 852.125C107.998 852.125 106.375 850.278 106.375 848C106.375 845.722 107.998 843.875 110 843.875C112.002 843.875 113.625 845.722 113.625 848Z" fill="#203152" fill-opacity="0.05"></path>
<path d="M128.125 848C128.125 850.278 126.502 852.125 124.5 852.125C122.498 852.125 120.875 850.278 120.875 848C120.875 845.722 122.498 843.875 124.5 843.875C126.502 843.875 128.125 845.722 128.125 848Z" fill="#203152" fill-opacity="0.05"></path>
<path d="M142.625 848C142.625 850.278 141.002 852.125 139 852.125C136.998 852.125 135.375 850.278 135.375 848C135.375 845.722 136.998 843.875 139 843.875C141.002 843.875 142.625 845.722 142.625 848Z" fill="#203152" fill-opacity="0.05"></path>
<path d="M120.875 872.75H110C99.7469 872.75 94.6204 872.75 91.4352 869.125C88.25 865.501 88.25 859.667 88.25 848C88.25 836.333 88.25 830.499 91.4352 826.875C94.6204 823.25 99.7469 823.25 110 823.25H139C149.253 823.25 154.379 823.25 157.565 826.875C160.75 830.499 160.75 836.333 160.75 848C160.75 859.667 160.75 865.501 157.565 869.125C154.379 872.75 149.253 872.75 139 872.75H135.375" stroke="#203152" stroke-opacity="0.05" stroke-width="6.625" stroke-linecap="round"></path>
<path d="M102.75 823.25V815C102.75 813.595 102.853 812.216 103.051 810.875M145.565 808.812C143.15 798.138 134.635 790.25 124.5 790.25C118.058 790.25 112.271 793.437 108.288 798.5" stroke="#203152" stroke-opacity="0.05" stroke-width="6.625" stroke-linecap="round"></path>
<path d="M234.625 997C234.625 999.278 233.002 1001.12 231 1001.12C228.998 1001.12 227.375 999.278 227.375 997C227.375 994.722 228.998 992.875 231 992.875C233.002 992.875 234.625 994.722 234.625 997Z" fill="#203152" fill-opacity="0.05"></path>
<path d="M249.125 997C249.125 999.278 247.502 1001.12 245.5 1001.12C243.498 1001.12 241.875 999.278 241.875 997C241.875 994.722 243.498 992.875 245.5 992.875C247.502 992.875 249.125 994.722 249.125 997Z" fill="#203152" fill-opacity="0.05"></path>
<path d="M263.625 997C263.625 999.278 262.002 1001.12 260 1001.12C257.998 1001.12 256.375 999.278 256.375 997C256.375 994.722 257.998 992.875 260 992.875C262.002 992.875 263.625 994.722 263.625 997Z" fill="#203152" fill-opacity="0.05"></path>
<path d="M241.875 1021.75H231C220.747 1021.75 215.62 1021.75 212.435 1018.13C209.25 1014.5 209.25 1008.67 209.25 997C209.25 985.333 209.25 979.499 212.435 975.875C215.62 972.25 220.747 972.25 231 972.25H260C270.253 972.25 275.379 972.25 278.565 975.875C281.75 979.499 281.75 985.333 281.75 997C281.75 1008.67 281.75 1014.5 278.565 1018.13C275.379 1021.75 270.253 1021.75 260 1021.75H256.375" stroke="#203152" stroke-opacity="0.05" stroke-width="6.625" stroke-linecap="round"></path>
<path d="M223.75 972.25V964C223.75 962.595 223.853 961.216 224.051 959.875M266.565 957.812C264.15 947.138 255.635 939.25 245.5 939.25C239.058 939.25 233.271 942.437 229.288 947.5" stroke="#203152" stroke-opacity="0.05" stroke-width="6.625" stroke-linecap="round"></path>
<path d="M262.625 885.375H262.662M262.625 907.625C274.913 907.625 284.875 897.663 284.875 885.375C284.875 873.087 274.913 863.125 262.625 863.125C250.337 863.125 240.375 873.087 240.375 885.375C240.375 886.39 240.443 887.389 240.575 888.368C240.791 889.978 240.899 890.783 240.826 891.292C240.75 891.823 240.654 892.108 240.392 892.576C240.141 893.025 239.699 893.468 238.814 894.353L219.863 913.304C219.221 913.945 218.901 914.266 218.671 914.64C218.468 914.972 218.318 915.334 218.227 915.712C218.125 916.139 218.125 916.592 218.125 917.499V923.942C218.125 926.019 218.125 927.057 218.529 927.85C218.885 928.548 219.452 929.115 220.15 929.471C220.943 929.875 221.981 929.875 224.058 929.875H230.501C231.408 929.875 231.861 929.875 232.288 929.773C232.666 929.682 233.028 929.532 233.36 929.328C233.734 929.099 234.055 928.778 234.696 928.137L253.647 909.186C254.532 908.301 254.975 907.859 255.424 907.608C255.892 907.346 256.177 907.249 256.708 907.174C257.217 907.101 258.022 907.209 259.632 907.425C260.611 907.557 261.61 907.625 262.625 907.625Z" stroke="#203152" stroke-opacity="0.05" stroke-width="7.41667" stroke-linecap="round" stroke-linejoin="round"></path>
<g clip-path="url(#clip9_183287_1716)">
<path d="M194.93 453.483C196.425 455.202 196.413 457.661 194.902 458.975C193.392 460.289 190.955 459.96 189.46 458.241C187.965 456.522 187.978 454.064 189.488 452.75C190.999 451.436 193.435 451.764 194.93 453.483Z" fill="#203152" fill-opacity="0.05"></path>
<path d="M205.871 443.967C207.366 445.686 207.353 448.145 205.843 449.459C204.332 450.773 201.896 450.444 200.4 448.725C198.905 447.006 198.918 444.548 200.429 443.234C201.939 441.92 204.376 442.248 205.871 443.967Z" fill="#203152" fill-opacity="0.05"></path>
<path d="M216.811 434.452C218.306 436.171 218.294 438.629 216.783 439.943C215.273 441.257 212.836 440.928 211.341 439.209C209.846 437.491 209.858 435.032 211.369 433.718C212.88 432.404 215.316 432.733 216.811 434.452Z" fill="#203152" fill-opacity="0.05"></path>
<path d="M216.643 467.4L208.437 474.537C200.701 481.266 196.833 484.63 192.051 483.986C187.269 483.341 183.441 478.939 175.784 470.136C168.127 461.333 164.299 456.932 164.323 452.106C164.348 447.281 168.216 443.917 175.952 437.188L197.833 418.156C205.569 411.427 209.437 408.063 214.219 408.707C219.002 409.352 222.83 413.753 230.487 422.557C238.144 431.36 241.972 435.761 241.947 440.587C241.923 445.412 238.055 448.776 230.319 455.505L227.583 457.884" stroke="#203152" stroke-opacity="0.05" stroke-width="6.625" stroke-linecap="round"></path>
<path d="M170.482 441.946L165.068 435.721C164.146 434.661 163.319 433.553 162.588 432.411M193.312 402.954C184.485 396.484 172.883 396.121 165.236 402.773C160.376 407 158.1 413.203 158.418 419.637" stroke="#203152" stroke-opacity="0.05" stroke-width="6.625" stroke-linecap="round"></path>
</g>
<g clip-path="url(#clip10_183287_1716)">
<path d="M162.516 353.291C161.275 354.122 159.596 353.789 158.765 352.547C157.934 351.306 158.267 349.627 159.508 348.796C160.75 347.965 162.429 348.298 163.26 349.539C164.09 350.781 163.758 352.46 162.516 353.291Z" fill="#203152" fill-opacity="0.05"></path>
<path d="M168.532 362.281C167.291 363.111 165.611 362.778 164.781 361.537C163.95 360.296 164.283 358.616 165.524 357.786C166.765 356.955 168.445 357.288 169.275 358.529C170.106 359.771 169.773 361.45 168.532 362.281Z" fill="#203152" fill-opacity="0.05"></path>
<path d="M174.549 371.27C173.307 372.101 171.628 371.768 170.797 370.527C169.967 369.286 170.299 367.606 171.541 366.776C172.782 365.945 174.461 366.278 175.292 367.519C176.123 368.76 175.79 370.44 174.549 371.27Z" fill="#203152" fill-opacity="0.05"></path>
<path d="M152.039 366.81L147.527 360.067C143.273 353.71 141.146 350.532 141.8 347.236C142.453 343.939 145.631 341.812 151.988 337.559C158.345 333.305 161.523 331.178 164.819 331.831C168.116 332.484 170.243 335.663 174.497 342.019L186.528 359.999C190.782 366.356 192.909 369.534 192.256 372.831C191.603 376.127 188.424 378.254 182.068 382.508C175.711 386.762 172.532 388.889 169.236 388.235C165.94 387.582 163.813 384.404 159.559 378.047L158.055 375.799" stroke="#203152" stroke-opacity="0.05" stroke-width="4.05639" stroke-linecap="round"></path>
<path d="M171.489 337.525L175.984 334.517C176.75 334.004 177.543 333.566 178.356 333.199M197.119 358.805C201.933 353.416 202.697 345.261 198.493 338.977C195.82 334.984 191.683 332.557 187.272 331.934" stroke="#203152" stroke-opacity="0.05" stroke-width="4.05639" stroke-linecap="round"></path>
</g>
<g clip-path="url(#clip11_183287_1716)">
<path d="M226.331 174.732C224.348 176.058 221.666 175.527 220.34 173.545C219.013 171.562 219.545 168.88 221.527 167.554C223.509 166.227 226.192 166.759 227.518 168.741C228.845 170.723 228.313 173.405 226.331 174.732Z" fill="#203152" fill-opacity="0.05"></path>
<path d="M235.937 189.089C233.955 190.415 231.273 189.884 229.946 187.901C228.62 185.919 229.151 183.237 231.133 181.91C233.116 180.584 235.798 181.115 237.124 183.098C238.451 185.08 237.919 187.762 235.937 189.089Z" fill="#203152" fill-opacity="0.05"></path>
<path d="M245.546 203.445C243.563 204.772 240.881 204.24 239.555 202.258C238.228 200.276 238.76 197.593 240.742 196.267C242.724 194.94 245.406 195.472 246.733 197.454C248.059 199.436 247.528 202.119 245.546 203.445Z" fill="#203152" fill-opacity="0.05"></path>
<path d="M209.598 196.321L202.393 185.554C195.599 175.402 192.203 170.326 193.246 165.062C194.289 159.798 199.365 156.401 209.517 149.608C219.668 142.814 224.744 139.418 230.008 140.461C235.273 141.504 238.669 146.58 245.463 156.732L264.677 185.445C271.471 195.597 274.867 200.672 273.824 205.937C272.781 211.201 267.705 214.598 257.554 221.391C247.402 228.184 242.326 231.581 237.062 230.538C231.798 229.494 228.401 224.419 221.608 214.267L219.206 210.678" stroke="#203152" stroke-opacity="0.05" stroke-width="6.478" stroke-linecap="round"></path>
<path d="M240.66 149.553L247.838 144.75C249.061 143.931 250.328 143.231 251.627 142.646M281.59 183.538C289.278 174.932 290.499 161.908 283.784 151.874C279.516 145.496 272.909 141.621 265.864 140.626" stroke="#203152" stroke-opacity="0.05" stroke-width="6.478" stroke-linecap="round"></path>
</g>
<path d="M150.5 198.917V214.083M143.931 202.708L157.066 210.292M157.064 202.708L143.93 210.292" stroke="#203152" stroke-opacity="0.05" stroke-width="5.6875" stroke-linecap="round"></path>
<path d="M130.528 198.917V214.083M123.959 202.708L137.094 210.292M137.093 202.708L123.958 210.292" stroke="#203152" stroke-opacity="0.05" stroke-width="5.6875" stroke-linecap="round"></path>
<path d="M170.475 198.917V214.083M163.906 202.708L177.041 210.292M177.04 202.708L163.905 210.292" stroke="#203152" stroke-opacity="0.05" stroke-width="5.6875" stroke-linecap="round"></path>
<path d="M188.416 206.5C188.416 220.799 188.416 227.949 183.974 232.391C179.532 236.833 172.382 236.833 158.083 236.833H142.916C128.617 236.833 121.467 236.833 117.025 232.391C112.583 227.949 112.583 220.799 112.583 206.5C112.583 192.201 112.583 185.051 117.025 180.609C121.467 176.167 128.617 176.167 142.916 176.167H158.083C172.382 176.167 179.532 176.167 183.974 180.609C186.451 183.085 187.547 186.404 188.031 191.333" stroke="#203152" stroke-opacity="0.05" stroke-width="5.6875" stroke-linecap="round"></path>
<g clip-path="url(#clip12_183287_1716)">
<path d="M122.576 663.967C121.36 665.56 119.082 665.865 117.489 664.649C115.896 663.433 115.591 661.156 116.807 659.563C118.023 657.97 120.3 657.664 121.893 658.88C123.486 660.096 123.792 662.374 122.576 663.967Z" fill="#203152" fill-opacity="0.05"></path>
<path d="M134.114 672.774C132.898 674.367 130.621 674.673 129.028 673.457C127.435 672.241 127.129 669.964 128.345 668.371C129.561 666.777 131.838 666.472 133.431 667.688C135.024 668.904 135.33 671.181 134.114 672.774Z" fill="#203152" fill-opacity="0.05"></path>
<path d="M145.65 681.582C144.434 683.175 142.157 683.48 140.564 682.264C138.971 681.048 138.665 678.771 139.881 677.178C141.097 675.585 143.374 675.279 144.967 676.495C146.56 677.712 146.866 679.989 145.65 681.582Z" fill="#203152" fill-opacity="0.05"></path>
<path d="M115.133 685.677L106.48 679.071C98.3215 672.844 94.2424 669.73 93.6427 665.26C93.043 660.791 96.1569 656.712 102.385 648.554C108.612 640.396 111.726 636.317 116.195 635.717C120.665 635.117 124.744 638.231 132.902 644.459L155.977 662.074C164.135 668.301 168.214 671.415 168.814 675.884C169.414 680.354 166.3 684.433 160.072 692.591C153.845 700.749 150.731 704.828 146.262 705.428C141.792 706.028 137.713 702.914 129.555 696.686L126.671 694.484" stroke="#203152" stroke-opacity="0.05" stroke-width="5.44313" stroke-linecap="round"></path>
<path d="M127.133 640.055L131.537 634.286C132.287 633.303 133.105 632.402 133.978 631.584M168.907 655.966C172.684 647.035 170.119 636.347 162.054 630.191C156.929 626.278 150.623 624.991 144.751 626.113" stroke="#203152" stroke-opacity="0.05" stroke-width="5.44313" stroke-linecap="round"></path>
</g>
<g clip-path="url(#clip13_183287_1716)">
<path d="M146.544 518.845C145.591 519.995 143.887 520.154 142.737 519.202C141.587 518.249 141.427 516.544 142.38 515.394C143.333 514.244 145.038 514.084 146.188 515.037C147.338 515.99 147.497 517.695 146.544 518.845Z" fill="#203152" fill-opacity="0.05"></path>
<path d="M154.873 525.747C153.92 526.897 152.216 527.057 151.066 526.104C149.916 525.151 149.756 523.446 150.709 522.296C151.662 521.146 153.367 520.986 154.517 521.939C155.667 522.892 155.826 524.597 154.873 525.747Z" fill="#203152" fill-opacity="0.05"></path>
<path d="M163.202 532.649C162.249 533.799 160.544 533.959 159.394 533.006C158.244 532.053 158.084 530.348 159.037 529.198C159.99 528.048 161.695 527.888 162.845 528.842C163.995 529.795 164.155 531.499 163.202 532.649Z" fill="#203152" fill-opacity="0.05"></path>
<path d="M140.355 534.789L134.109 529.612C128.22 524.732 125.275 522.292 124.962 518.946C124.648 515.6 127.088 512.655 131.969 506.766C136.85 500.877 139.29 497.932 142.636 497.619C145.981 497.305 148.926 499.746 154.815 504.626L171.473 518.431C177.362 523.311 180.307 525.751 180.62 529.097C180.934 532.443 178.493 535.388 173.613 541.277C168.732 547.166 166.292 550.111 162.946 550.424C159.6 550.738 156.656 548.297 150.766 543.417L148.684 541.691" stroke="#203152" stroke-opacity="0.05" stroke-width="4.05639" stroke-linecap="round"></path>
<path d="M150.651 501.175L154.102 497.011C154.69 496.301 155.325 495.655 156 495.072M181.283 514.268C184.361 507.73 182.77 499.695 176.948 494.871C173.248 491.805 168.591 490.658 164.185 491.318" stroke="#203152" stroke-opacity="0.05" stroke-width="4.05639" stroke-linecap="round"></path>
</g>
<g clip-path="url(#clip14_183287_1716)">
<path d="M140.544 48.8449C139.591 49.9948 137.887 50.1545 136.737 49.2015C135.587 48.2485 135.427 46.5438 136.38 45.3938C137.333 44.2438 139.038 44.0841 140.188 45.0371C141.338 45.9901 141.497 47.6949 140.544 48.8449Z" fill="#203152" fill-opacity="0.05"></path>
<path d="M148.873 55.747C147.92 56.897 146.216 57.0567 145.066 56.1037C143.916 55.1507 143.756 53.4459 144.709 52.296C145.662 51.146 147.367 50.9863 148.517 51.9393C149.667 52.8923 149.826 54.597 148.873 55.747Z" fill="#203152" fill-opacity="0.05"></path>
<path d="M157.202 62.6492C156.249 63.7992 154.544 63.9589 153.394 63.0059C152.244 62.0528 152.084 60.3481 153.037 59.1981C153.99 58.0481 155.695 57.8885 156.845 58.8415C157.995 59.7945 158.155 61.4992 157.202 62.6492Z" fill="#203152" fill-opacity="0.05"></path>
<path d="M134.355 64.7891L128.109 59.6125C122.22 54.7319 119.275 52.2916 118.962 48.9458C118.648 45.6 121.088 42.6554 125.969 36.7661C130.85 30.8768 133.29 27.9322 136.636 27.6188C139.981 27.3054 142.926 29.7456 148.815 34.6262L165.473 48.4306C171.362 53.3111 174.307 55.7514 174.62 59.0972C174.934 62.4431 172.493 65.3877 167.613 71.277C162.732 77.1663 160.292 80.1109 156.946 80.4243C153.6 80.7377 150.656 78.2974 144.766 73.4169L142.684 71.6913" stroke="#203152" stroke-opacity="0.05" stroke-width="4.05639" stroke-linecap="round"></path>
<path d="M144.651 31.1751L148.102 27.0107C148.69 26.3013 149.325 25.6547 150 25.0717M175.283 44.2678C178.361 37.7301 176.77 29.6951 170.948 24.8709C167.248 21.8046 162.591 20.6581 158.185 21.3182" stroke="#203152" stroke-opacity="0.05" stroke-width="4.05639" stroke-linecap="round"></path>
</g>
<g clip-path="url(#clip15_183287_1716)">
<path d="M149.716 268.133L149.732 268.103M167.555 277.717C172.848 267.864 169.152 255.587 159.3 250.294C149.448 245.002 137.17 248.698 131.878 258.55C126.585 268.402 130.281 280.679 140.133 285.972C140.947 286.409 141.777 286.785 142.618 287.101C144.002 287.621 144.695 287.881 145.071 288.159C145.464 288.448 145.651 288.648 145.914 289.06C146.166 289.454 146.33 290 146.658 291.09L153.69 314.447C153.928 315.237 154.047 315.632 154.248 315.977C154.427 316.283 154.652 316.559 154.916 316.795C155.214 317.061 155.578 317.256 156.305 317.647L161.47 320.422C163.135 321.316 163.968 321.764 164.778 321.781C165.491 321.797 166.19 321.586 166.775 321.18C167.441 320.718 167.888 319.886 168.783 318.22L171.558 313.055C171.948 312.328 172.144 311.965 172.245 311.578C172.335 311.236 172.371 310.881 172.351 310.528C172.328 310.129 172.209 309.734 171.971 308.943L164.94 285.586C164.612 284.496 164.447 283.951 164.44 283.483C164.432 282.995 164.477 282.724 164.645 282.266C164.806 281.826 165.239 281.228 166.106 280.03C166.633 279.302 167.118 278.53 167.555 277.717Z" stroke="#203152" stroke-opacity="0.05" stroke-width="6.75" stroke-linecap="round" stroke-linejoin="round"></path>
</g>
<path d="M67.9192 51.035L67.914 50.9925M93.4155 47.9188C91.6945 33.8376 78.8842 23.8176 64.8029 25.5387C50.7217 27.2597 40.7018 40.0701 42.4228 54.1513C44.1439 68.2325 56.9541 78.2524 71.0354 76.5314C72.1984 76.3893 73.3336 76.1715 74.4369 75.8836C76.2515 75.4101 77.1589 75.1733 77.7525 75.1854C78.3712 75.1981 78.712 75.2688 79.2849 75.5029C79.8346 75.7276 80.4035 76.1726 81.5413 77.0625L105.912 96.1248C106.737 96.7699 107.149 97.0925 107.61 97.3028C108.019 97.4893 108.454 97.6104 108.901 97.6615C109.404 97.7191 109.924 97.6556 110.963 97.5286L118.345 96.6263C120.725 96.3354 121.915 96.19 122.768 95.6157C123.517 95.1105 124.088 94.3811 124.398 93.5317C124.75 92.5661 124.604 91.3761 124.313 88.9963L123.411 81.614C123.284 80.5746 123.221 80.0549 123.043 79.5802C122.886 79.1593 122.664 78.7658 122.384 78.4142C122.069 78.0174 121.657 77.6948 120.832 77.0497L96.4614 57.9876C95.3236 57.0976 94.7547 56.6526 94.4041 56.1731C94.039 55.6735 93.8881 55.3598 93.7271 54.7623C93.5721 54.1891 93.5834 53.2514 93.606 51.376C93.6198 50.2362 93.5577 49.0819 93.4155 47.9188Z" stroke="#203152" stroke-opacity="0.05" stroke-width="8.56203" stroke-linecap="round" stroke-linejoin="round"></path>
<g clip-path="url(#clip16_183287_1716)">
<path d="M236.715 63.2399L236.723 63.1926M265.066 67.7154C267.538 52.0577 256.848 37.3607 241.191 34.8889C225.533 32.4171 210.836 43.1066 208.364 58.7643C205.892 74.4221 216.582 89.1191 232.24 91.5909C233.533 91.795 234.819 91.9094 236.093 91.9386C238.188 91.9866 239.236 92.0107 239.87 92.2059C240.531 92.4094 240.875 92.5899 241.419 93.0172C241.941 93.4274 242.415 94.08 243.365 95.3853L263.701 123.345C264.389 124.292 264.733 124.765 265.164 125.132C265.546 125.458 265.976 125.722 266.44 125.914C266.964 126.13 267.541 126.221 268.697 126.404L276.906 127.699C279.552 128.117 280.875 128.326 281.967 127.971C282.928 127.658 283.765 127.049 284.358 126.232C285.033 125.302 285.242 123.979 285.66 121.333L286.955 113.124C287.138 111.968 287.229 111.39 287.184 110.826C287.145 110.325 287.027 109.834 286.834 109.371C286.617 108.848 286.273 108.375 285.585 107.428L265.249 79.4685C264.3 78.1631 263.825 77.5104 263.595 76.8877C263.356 76.2388 263.291 75.8555 263.301 75.1641C263.31 74.5007 263.61 73.4966 264.21 71.4885C264.575 70.268 264.862 69.0087 265.066 67.7154Z" stroke="#203152" stroke-opacity="0.05" stroke-width="9.56735" stroke-linecap="round" stroke-linejoin="round"></path>
</g>
<g clip-path="url(#clip17_183287_1716)">
<path d="M59.5107 376.692L59.5371 376.67M72.1525 392.511C80.8892 385.529 82.3118 372.786 75.3299 364.05C68.3481 355.313 55.6056 353.89 46.8689 360.872C38.1322 367.854 36.7096 380.597 43.6915 389.333C44.2681 390.055 44.884 390.727 45.5337 391.348C46.6024 392.369 47.1368 392.88 47.3743 393.284C47.6218 393.704 47.7154 393.962 47.7953 394.443C47.872 394.905 47.8089 395.471 47.6826 396.603L44.9762 420.845C44.8845 421.665 44.8387 422.075 44.8883 422.471C44.9323 422.823 45.0312 423.165 45.1817 423.486C45.3514 423.848 45.6091 424.17 46.1242 424.815L49.7846 429.395C50.9648 430.872 51.5547 431.61 52.2927 431.944C52.9421 432.239 53.6676 432.319 54.3657 432.176C55.1593 432.012 55.8977 431.422 57.3743 430.242L61.9546 426.582C62.5995 426.067 62.9219 425.809 63.1672 425.494C63.3846 425.214 63.5566 424.902 63.6769 424.569C63.8127 424.193 63.8585 423.783 63.9502 422.963L66.6565 398.721C66.7829 397.589 66.846 397.024 67.0227 396.59C67.2069 396.138 67.3549 395.907 67.6892 395.552C68.0097 395.211 68.6436 394.83 69.9114 394.069C70.682 393.607 71.4309 393.087 72.1525 392.511Z" stroke="#203152" stroke-opacity="0.05" stroke-width="6.75" stroke-linecap="round" stroke-linejoin="round"></path>
</g>
<path d="M132.625 462.375H132.659M132.625 482.625C143.809 482.625 152.875 473.559 152.875 462.375C152.875 451.191 143.809 442.125 132.625 442.125C121.441 442.125 112.375 451.191 112.375 462.375C112.375 463.299 112.437 464.208 112.557 465.099C112.754 466.564 112.852 467.297 112.786 467.76C112.717 468.243 112.629 468.503 112.391 468.929C112.162 469.338 111.76 469.74 110.955 470.546L93.7066 487.793C93.1229 488.377 92.8311 488.669 92.6223 489.009C92.4373 489.312 92.3009 489.641 92.2183 489.985C92.125 490.374 92.125 490.786 92.125 491.612V497.475C92.125 499.365 92.125 500.31 92.4928 501.032C92.8164 501.667 93.3327 502.183 93.9678 502.507C94.6897 502.875 95.6348 502.875 97.525 502.875H103.388C104.214 502.875 104.626 502.875 105.015 502.782C105.359 502.699 105.688 502.563 105.99 502.378C106.331 502.169 106.623 501.877 107.207 501.293L124.454 484.046C125.26 483.24 125.662 482.838 126.071 482.609C126.497 482.371 126.757 482.283 127.24 482.214C127.703 482.148 128.436 482.246 129.901 482.443C130.792 482.563 131.701 482.625 132.625 482.625Z" stroke="#203152" stroke-opacity="0.05" stroke-width="6.75" stroke-linecap="round" stroke-linejoin="round"></path>
<path d="M171.625 727.375H171.659M171.625 747.625C182.809 747.625 191.875 738.559 191.875 727.375C191.875 716.191 182.809 707.125 171.625 707.125C160.441 707.125 151.375 716.191 151.375 727.375C151.375 728.299 151.437 729.208 151.557 730.099C151.754 731.564 151.852 732.297 151.786 732.76C151.717 733.243 151.629 733.503 151.391 733.929C151.162 734.338 150.76 734.74 149.955 735.546L132.707 752.793C132.123 753.377 131.831 753.669 131.622 754.009C131.437 754.312 131.301 754.641 131.218 754.985C131.125 755.374 131.125 755.786 131.125 756.612V762.475C131.125 764.365 131.125 765.31 131.493 766.032C131.816 766.667 132.333 767.183 132.968 767.507C133.69 767.875 134.635 767.875 136.525 767.875H142.388C143.214 767.875 143.626 767.875 144.015 767.782C144.359 767.699 144.688 767.563 144.99 767.378C145.331 767.169 145.623 766.877 146.207 766.293L163.454 749.046C164.26 748.24 164.662 747.838 165.071 747.609C165.497 747.371 165.757 747.283 166.24 747.214C166.703 747.148 167.436 747.246 168.901 747.443C169.792 747.563 170.701 747.625 171.625 747.625Z" stroke="#203152" stroke-opacity="0.05" stroke-width="6.75" stroke-linecap="round" stroke-linejoin="round"></path>
<g clip-path="url(#clip18_183287_1716)">
<path d="M190.408 786.747L190.434 786.726M203.246 802.408C211.895 795.318 213.159 782.559 206.069 773.91C198.979 765.261 186.22 763.997 177.571 771.086C168.922 778.176 167.657 790.935 174.747 799.585C175.333 800.299 175.957 800.963 176.614 801.576C177.696 802.584 178.236 803.089 178.479 803.489C178.732 803.906 178.828 804.163 178.914 804.643C178.997 805.104 178.941 805.671 178.828 806.804L176.423 831.078C176.342 831.899 176.301 832.31 176.356 832.705C176.404 833.056 176.507 833.397 176.662 833.716C176.836 834.076 177.098 834.395 177.621 835.033L181.338 839.568C182.536 841.03 183.135 841.761 183.877 842.086C184.53 842.372 185.257 842.444 185.953 842.291C186.745 842.118 187.476 841.519 188.937 840.321L193.472 836.604C194.11 836.08 194.429 835.819 194.671 835.5C194.885 835.218 195.053 834.904 195.169 834.569C195.3 834.192 195.341 833.781 195.422 832.96L197.827 808.687C197.939 807.553 197.996 806.987 198.167 806.551C198.345 806.097 198.491 805.864 198.82 805.505C199.137 805.159 199.766 804.771 201.024 803.995C201.789 803.523 202.531 802.994 203.246 802.408Z" stroke="#203152" stroke-opacity="0.05" stroke-width="6.75" stroke-linecap="round" stroke-linejoin="round"></path>
</g>
<g clip-path="url(#clip19_183287_1716)">
<path d="M260.285 410.024L260.297 409.993M278.373 417.285C282.383 407.295 277.536 395.946 267.547 391.936C257.557 387.925 246.208 392.773 242.197 402.762C238.187 412.752 243.034 424.101 253.024 428.112C253.849 428.443 254.683 428.714 255.522 428.926C256.902 429.275 257.591 429.45 257.981 429.676C258.388 429.91 258.589 430.082 258.884 430.447C259.167 430.798 259.382 431.302 259.813 432.31L269.034 453.901C269.346 454.632 269.502 454.997 269.732 455.306C269.935 455.579 270.18 455.819 270.458 456.017C270.772 456.239 271.141 456.387 271.878 456.683L277.115 458.786C278.804 459.463 279.648 459.802 280.424 459.733C281.108 459.671 281.754 459.395 282.271 458.944C282.858 458.431 283.197 457.587 283.875 455.899L285.977 450.661C286.273 449.924 286.421 449.555 286.477 449.175C286.527 448.838 286.523 448.495 286.466 448.159C286.402 447.779 286.246 447.414 285.934 446.683L276.712 425.092C276.282 424.084 276.066 423.58 276.009 423.133C275.949 422.668 275.964 422.404 276.075 421.948C276.182 421.51 276.533 420.891 277.234 419.653C277.661 418.9 278.042 418.11 278.373 417.285Z" stroke="#203152" stroke-opacity="0.05" stroke-width="6.497" stroke-linecap="round" stroke-linejoin="round"></path>
</g>
<g clip-path="url(#clip20_183287_1716)">
<path d="M56.5997 597.466L56.5933 597.487M43.8793 593.6C41.7443 600.625 45.7086 608.051 52.734 610.186C59.7593 612.321 67.1852 608.357 69.3202 601.331C71.4552 594.306 67.4908 586.88 60.4655 584.745C59.8853 584.569 59.3023 584.434 58.7198 584.339C57.7618 584.183 57.2827 584.105 57.0043 583.975C56.7141 583.84 56.5676 583.735 56.3455 583.504C56.1324 583.282 55.9563 582.953 55.6042 582.293L48.0622 568.166C47.8071 567.688 47.6794 567.449 47.5053 567.253C47.3509 567.079 47.1702 566.93 46.9695 566.812C46.7433 566.68 46.484 566.601 45.9657 566.443L42.2825 565.324C41.095 564.963 40.5014 564.783 39.9777 564.876C39.5169 564.958 39.0942 565.184 38.7696 565.521C38.4007 565.904 38.2203 566.498 37.8595 567.685L36.7402 571.368C36.5826 571.887 36.5038 572.146 36.4881 572.408C36.4743 572.64 36.4971 572.873 36.5559 573.098C36.6219 573.352 36.7496 573.591 37.0047 574.069L44.5467 588.196C44.8988 588.856 45.0749 589.186 45.1404 589.486C45.2085 589.799 45.2143 589.979 45.1653 590.296C45.1186 590.599 44.9168 591.041 44.5133 591.924C44.268 592.46 44.0556 593.02 43.8793 593.6Z" stroke="#203152" stroke-opacity="0.05" stroke-width="4.43164" stroke-linecap="round" stroke-linejoin="round"></path>
</g>
<path d="M112.5 398.417V410.583M107.23 401.458L117.767 407.542M117.766 401.458L107.229 407.542" stroke="#203152" stroke-opacity="0.05" stroke-width="4.5625" stroke-linecap="round"></path>
<path d="M96.4782 398.417V410.583M91.2087 401.458L101.745 407.542M101.745 401.458L91.208 407.542" stroke="#203152" stroke-opacity="0.05" stroke-width="4.5625" stroke-linecap="round"></path>
<path d="M128.524 398.417V410.583M123.255 401.458L133.791 407.542M133.791 401.458L123.254 407.542" stroke="#203152" stroke-opacity="0.05" stroke-width="4.5625" stroke-linecap="round"></path>
<path d="M142.916 404.5C142.916 415.971 142.916 421.706 139.353 425.27C135.789 428.833 130.054 428.833 118.583 428.833H106.416C94.9455 428.833 89.2101 428.833 85.6465 425.27C82.083 421.706 82.083 415.971 82.083 404.5C82.083 393.029 82.083 387.294 85.6465 383.73C89.2101 380.167 94.9455 380.167 106.416 380.167H118.583C130.054 380.167 135.789 380.167 139.353 383.73C141.34 385.717 142.219 388.379 142.608 392.333" stroke="#203152" stroke-opacity="0.05" stroke-width="4.5625" stroke-linecap="round"></path>
<path d="M63.5726 648.659L51.4105 648.324M60.6772 643.308L54.306 653.673M60.387 653.84L54.5962 643.14" stroke="#203152" stroke-opacity="0.05" stroke-width="4.5625" stroke-linecap="round"></path>
<path d="M64.014 632.643L51.852 632.308M61.1186 627.292L54.7474 637.657M60.8284 637.824L55.0376 627.124" stroke="#203152" stroke-opacity="0.05" stroke-width="4.5625" stroke-linecap="round"></path>
<path d="M63.1312 664.677L50.9691 664.342M60.2358 659.326L53.8646 669.691M59.9456 669.858L54.1548 659.157" stroke="#203152" stroke-opacity="0.05" stroke-width="4.5625" stroke-linecap="round"></path>
<path d="M56.6534 678.897C45.1871 678.581 39.4536 678.423 35.9898 674.762C32.5257 671.102 32.6837 665.369 32.9996 653.902L33.3348 641.74C33.6508 630.274 33.8088 624.541 37.4692 621.077C41.1294 617.613 46.8628 617.771 58.3292 618.087C69.7957 618.403 75.5289 618.561 78.993 622.221C82.457 625.881 82.299 631.614 81.983 643.081L81.6478 655.243C81.3319 666.709 81.1739 672.443 77.5135 675.907C75.4728 677.838 72.7877 678.643 68.824 678.923" stroke="#203152" stroke-opacity="0.05" stroke-width="4.5625" stroke-linecap="round"></path>
<g clip-path="url(#clip21_183287_1716)">
<path d="M244.905 726.288L251.764 739.123M241.06 732.468L255.606 732.945M252.175 726.528L244.489 738.886" stroke="#203152" stroke-opacity="0.05" stroke-width="5.45746" stroke-linecap="round"></path>
<path d="M228.002 735.321L234.861 748.156M224.158 741.5L238.703 741.978M235.273 735.561L227.587 747.919" stroke="#203152" stroke-opacity="0.05" stroke-width="5.45746" stroke-linecap="round"></path>
<path d="M261.81 717.254L268.669 730.09M257.965 723.434L272.511 723.912M269.081 717.494L261.394 729.852" stroke="#203152" stroke-opacity="0.05" stroke-width="5.45746" stroke-linecap="round"></path>
<path d="M280.424 715.558C286.891 727.659 290.124 733.71 288.374 739.478C286.623 745.247 280.573 748.48 268.471 754.947L255.636 761.806C243.535 768.273 237.484 771.507 231.715 769.756C225.947 768.006 222.714 761.955 216.247 749.854C209.78 737.752 206.546 731.702 208.297 725.933C210.047 720.165 216.098 716.931 228.199 710.465L241.035 703.605C253.136 697.138 259.187 693.905 264.955 695.655C268.171 696.631 270.599 698.944 273.239 702.896" stroke="#203152" stroke-opacity="0.05" stroke-width="5.45746" stroke-linecap="round"></path>
</g>
<path d="M111.5 917.417V929.583M106.23 920.458L116.767 926.542M116.766 920.458L106.229 926.542" stroke="#203152" stroke-opacity="0.05" stroke-width="4.5625" stroke-linecap="round"></path>
<path d="M95.4782 917.417V929.583M90.2087 920.458L100.745 926.542M100.745 920.458L90.208 926.542" stroke="#203152" stroke-opacity="0.05" stroke-width="4.5625" stroke-linecap="round"></path>
<path d="M127.524 917.417V929.583M122.255 920.458L132.791 926.542M132.791 920.458L122.254 926.542" stroke="#203152" stroke-opacity="0.05" stroke-width="4.5625" stroke-linecap="round"></path>
<path d="M141.916 923.5C141.916 934.971 141.916 940.706 138.353 944.27C134.789 947.833 129.054 947.833 117.583 947.833H105.416C93.9455 947.833 88.2101 947.833 84.6465 944.27C81.083 940.706 81.083 934.971 81.083 923.5C81.083 912.029 81.083 906.294 84.6465 902.73C88.2101 899.167 93.9455 899.167 105.416 899.167H117.583C129.054 899.167 134.789 899.167 138.353 902.73C140.34 904.717 141.219 907.379 141.608 911.333" stroke="#203152" stroke-opacity="0.05" stroke-width="4.5625" stroke-linecap="round"></path>
<g clip-path="url(#clip22_183287_1716)">
<path d="M70.7953 983.449L61.3281 990.474M65.0127 980.602L67.1093 993.319M71.8423 989.806L60.2785 984.113" stroke="#203152" stroke-opacity="0.05" stroke-width="4.5625" stroke-linecap="round"></path>
<path d="M60.4094 969.452L50.9423 976.476M54.6268 966.604L56.7234 979.322M61.4566 975.809L49.8928 970.116" stroke="#203152" stroke-opacity="0.05" stroke-width="4.5625" stroke-linecap="round"></path>
<path d="M81.182 997.447L71.7148 1004.47M75.3992 994.6L77.4958 1007.32M82.229 1003.8L70.6652 998.112" stroke="#203152" stroke-opacity="0.05" stroke-width="4.5625" stroke-linecap="round"></path>
<path d="M85.7791 1013.53C76.8535 1020.16 72.3904 1023.47 67.3076 1022.41C62.2248 1021.36 58.5068 1016.35 51.0711 1006.33L43.1842 995.696C35.7484 985.675 32.0306 980.665 32.4935 975.494C32.9562 970.324 37.4193 967.012 46.3449 960.389C55.2707 953.766 59.7335 950.454 64.8164 951.51C69.8993 952.566 73.6172 957.576 81.053 967.597L88.9398 978.226C96.3755 988.247 100.094 993.257 99.6306 998.428C99.3725 1001.31 97.8711 1003.62 95.0462 1006.24" stroke="#203152" stroke-opacity="0.05" stroke-width="4.5625" stroke-linecap="round"></path>
</g>
<g clip-path="url(#clip23_183287_1716)">
<path d="M260.872 492.384L250.979 499.466M255.332 489.87L256.519 501.979M261.465 498.437L250.385 493.41" stroke="#203152" stroke-opacity="0.05" stroke-width="4.5625" stroke-linecap="round"></path>
<path d="M251.546 479.356L241.653 486.438M246.006 476.842L247.192 488.951M252.139 485.409L241.059 480.382" stroke="#203152" stroke-opacity="0.05" stroke-width="4.5625" stroke-linecap="round"></path>
<path d="M270.2 505.414L260.307 512.496M264.659 502.899L265.846 515.008M270.792 511.466L259.712 506.44" stroke="#203152" stroke-opacity="0.05" stroke-width="4.5625" stroke-linecap="round"></path>
<path d="M273.631 520.658C264.304 527.335 259.64 530.674 254.669 529.85C249.697 529.027 246.358 524.363 239.681 515.036L232.599 505.143C225.922 495.816 222.583 491.152 223.407 486.18C224.23 481.209 228.894 477.87 238.221 471.193C247.548 464.516 252.212 461.177 257.184 462.001C262.155 462.824 265.494 467.487 272.171 476.815L279.253 486.708C285.93 496.035 289.269 500.699 288.445 505.67C287.986 508.442 286.334 510.707 283.345 513.325" stroke="#203152" stroke-opacity="0.05" stroke-width="4.5625" stroke-linecap="round"></path>
</g>
<g clip-path="url(#clip24_183287_1716)">
<path d="M229.268 272.709L237.98 288.539M224.59 280.439L242.655 280.81M238.298 272.896L228.945 288.355" stroke="#203152" stroke-opacity="0.05" stroke-width="6.77572" stroke-linecap="round"></path>
<path d="M208.422 284.181L217.134 300.011M203.744 291.911L221.809 292.282M217.452 284.367L208.099 299.827" stroke="#203152" stroke-opacity="0.05" stroke-width="6.77572" stroke-linecap="round"></path>
<path d="M250.117 261.236L258.828 277.065M245.438 268.966L263.503 269.337M259.147 261.422L249.793 276.882" stroke="#203152" stroke-opacity="0.05" stroke-width="6.77572" stroke-linecap="round"></path>
<path d="M273.199 258.846C281.412 273.77 285.519 281.233 283.434 288.421C281.349 295.609 273.887 299.715 258.962 307.928L243.132 316.64C228.208 324.853 220.745 328.959 213.557 326.874C206.37 324.79 202.263 317.327 194.05 302.403C185.837 287.478 181.73 280.016 183.815 272.828C185.9 265.64 193.362 261.533 208.287 253.32L224.117 244.609C239.041 236.396 246.504 232.289 253.691 234.374C257.699 235.536 260.749 238.37 264.086 243.237" stroke="#203152" stroke-opacity="0.05" stroke-width="6.77572" stroke-linecap="round"></path>
</g>
<g clip-path="url(#clip25_183287_1716)">
<path d="M35.1262 460.112L61.031 460.871C63.4516 460.942 65.7012 459.626 66.8257 457.482L78.86 434.529M55.4475 488.58L93.7146 466.195C96.7339 464.429 97.7497 460.55 95.9836 457.531L83.1923 435.664C81.4262 432.644 77.547 431.629 74.5278 433.395L36.2607 455.779C33.2415 457.546 32.2257 461.425 33.9918 464.444L46.783 486.311C48.5492 489.33 52.4283 490.346 55.4475 488.58Z" stroke="#203152" stroke-opacity="0.05" stroke-width="6.33333" stroke-linecap="round" stroke-linejoin="round"></path>
</g>
<g clip-path="url(#clip26_183287_1716)">
<path d="M213.081 354.248L243.617 355.144C246.47 355.227 249.122 353.676 250.447 351.148L264.633 324.093M237.035 387.805L282.143 361.419C285.702 359.337 286.899 354.765 284.817 351.206L269.74 325.43C267.658 321.871 263.085 320.674 259.526 322.755L214.419 349.142C210.86 351.223 209.662 355.796 211.744 359.355L226.822 385.131C228.904 388.69 233.476 389.887 237.035 387.805Z" stroke="#203152" stroke-opacity="0.05" stroke-width="7.46546" stroke-linecap="round" stroke-linejoin="round"></path>
</g>
<g clip-path="url(#clip27_183287_1716)">
<path d="M125.87 119.619L163.182 120.713C166.669 120.816 169.909 118.92 171.529 115.831L188.862 82.7713M155.14 160.624L210.258 128.382C214.607 125.838 216.07 120.25 213.526 115.902L195.102 84.4054C192.558 80.0566 186.971 78.5934 182.622 81.1373L127.504 113.379C123.155 115.923 121.692 121.511 124.236 125.859L142.66 157.355C145.204 161.704 150.791 163.167 155.14 160.624Z" stroke="#203152" stroke-opacity="0.05" stroke-width="9.12227" stroke-linecap="round" stroke-linejoin="round"></path>
</g>
<g clip-path="url(#clip28_183287_1716)">
<path d="M77.7218 587.035L107.216 586.762C109.972 586.737 112.472 585.141 113.657 582.653L126.337 556.022M102.081 618.519L144.619 591.383C147.976 589.242 148.961 584.786 146.82 581.429L131.313 557.122C129.172 553.766 124.716 552.781 121.36 554.922L78.822 582.058C75.4658 584.199 74.4807 588.655 76.6217 592.011L92.128 616.319C94.2691 619.675 98.7253 620.66 102.081 618.519Z" stroke="#203152" stroke-opacity="0.05" stroke-width="7.20805" stroke-linecap="round" stroke-linejoin="round"></path>
</g>
<g clip-path="url(#clip29_183287_1716)">
<path d="M185.796 668.995L211.674 670.41C214.092 670.542 216.374 669.284 217.552 667.168L230.163 644.528M205.391 697.969L244.212 676.559C247.275 674.87 248.389 671.018 246.699 667.955L234.466 645.771C232.776 642.708 228.924 641.595 225.861 643.284L187.04 664.693C183.977 666.382 182.863 670.235 184.553 673.298L196.786 695.481C198.476 698.544 202.328 699.658 205.391 697.969Z" stroke="#203152" stroke-opacity="0.05" stroke-width="6.33333" stroke-linecap="round" stroke-linejoin="round"></path>
</g>
<path d="M39.5077 836.262L54.0199 818.022C55.376 816.318 55.6414 813.989 54.7037 812.023L44.6681 790.986M70.9572 836.98L75.4725 797.364C75.8288 794.238 73.5838 791.415 70.4581 791.059L47.8204 788.479C44.6947 788.123 41.8721 790.368 41.5159 793.493L37.0005 833.109C36.6443 836.235 38.8893 839.058 42.0149 839.414L64.6527 841.994C67.7784 842.35 70.6009 840.105 70.9572 836.98Z" stroke="#203152" stroke-opacity="0.05" stroke-width="5.69608" stroke-linecap="round" stroke-linejoin="round"></path>
<g clip-path="url(#clip30_183287_1716)">
<path d="M155.232 901.086L183.18 891.055C185.792 890.118 187.492 887.763 187.559 884.989L188.279 855.305M191.824 923.146L220.739 883.088C223.021 879.927 222.06 875.336 218.593 872.834L193.483 854.709C190.016 852.206 185.356 852.74 183.075 855.9L154.159 895.959C151.878 899.119 152.839 903.71 156.306 906.213L181.415 924.338C184.882 926.84 189.542 926.307 191.824 923.146Z" stroke="#203152" stroke-opacity="0.05" stroke-width="6.33333" stroke-linecap="round" stroke-linejoin="round"></path>
</g>
<g clip-path="url(#clip31_183287_1716)">
<path d="M57.9464 880.898L57.9715 880.875M71.4959 895.947C79.8072 888.464 80.4786 875.66 72.9955 867.348C65.5123 859.037 52.7083 858.365 44.3969 865.849C36.0856 873.332 35.4142 886.136 42.8974 894.447C43.5154 895.134 44.1697 895.768 44.8548 896.35C45.9817 897.307 46.5451 897.786 46.8059 898.174C47.0777 898.579 47.1863 898.831 47.2944 899.307C47.3981 899.764 47.3683 900.332 47.3087 901.47L46.0315 925.828C45.9881 926.653 45.9666 927.065 46.0393 927.458C46.1039 927.806 46.2227 928.142 46.3919 928.453C46.5825 928.804 46.8587 929.111 47.4108 929.724L51.3341 934.082C52.5989 935.486 53.2312 936.189 53.9876 936.479C54.6531 936.735 55.3821 936.773 56.0706 936.588C56.8533 936.379 57.5556 935.746 58.9603 934.482L63.3177 930.558C63.9312 930.006 64.2379 929.73 64.4642 929.401C64.6648 929.109 64.8183 928.787 64.9187 928.448C65.0322 928.065 65.0538 927.652 65.0972 926.828L66.3744 902.469C66.434 901.332 66.4638 900.764 66.6147 900.32C66.772 899.858 66.9062 899.619 67.219 899.245C67.5189 898.885 68.1294 898.468 69.3503 897.634C70.0924 897.127 70.8094 896.565 71.4959 895.947Z" stroke="#203152" stroke-opacity="0.05" stroke-width="6.75" stroke-linecap="round" stroke-linejoin="round"></path>
</g>
<defs>
<clipPath id="clip0_183287_1716">
<rect width="105.456" height="105.456" fill="white" transform="matrix(0 -1 1 0 52 378.456)"></rect>
</clipPath>
<clipPath id="clip1_183287_1716">
<rect width="105.456" height="105.456" fill="white" transform="matrix(0 -1 1 0 108 1040.46)"></rect>
</clipPath>
<clipPath id="clip2_183287_1716">
<rect width="85" height="85" fill="white" transform="translate(14 531.932) rotate(-41.1489)"></rect>
</clipPath>
<clipPath id="clip3_183287_1716">
<rect width="105.456" height="105.456" fill="white" transform="translate(122 599.567) rotate(-42.0023)"></rect>
</clipPath>
<clipPath id="clip4_183287_1716">
<rect width="105.456" height="105.456" fill="white" transform="matrix(0 -1 1 0 207 871.456)"></rect>
</clipPath>
<clipPath id="clip5_183287_1716">
<rect width="79.7731" height="79.7731" fill="white" transform="translate(214 658.156) rotate(-63.1235)"></rect>
</clipPath>
<clipPath id="clip6_183287_1716">
<rect width="68" height="68" fill="white" transform="matrix(0 -1 1 0 235 600)"></rect>
</clipPath>
<clipPath id="clip7_183287_1716">
<rect width="106" height="106" fill="white" transform="matrix(0 -1 1 0 30 201)"></rect>
</clipPath>
<clipPath id="clip8_183287_1716">
<rect width="87" height="99" fill="white" transform="translate(9 207.618) rotate(-22.7313)"></rect>
</clipPath>
<clipPath id="clip9_183287_1716">
<rect width="87" height="99" fill="white" transform="translate(127 425.096) rotate(-41.0161)"></rect>
</clipPath>
<clipPath id="clip10_183287_1716">
<rect width="64.9022" height="64.9022" fill="white" transform="translate(184.939 309) rotate(56.2099)"></rect>
</clipPath>
<clipPath id="clip11_183287_1716">
<rect width="103.648" height="103.648" fill="white" transform="translate(262.14 104) rotate(56.2099)"></rect>
</clipPath>
<clipPath id="clip12_183287_1716">
<rect width="87.0901" height="87.0901" fill="white" transform="translate(131.845 598) rotate(37.357)"></rect>
</clipPath>
<clipPath id="clip13_183287_1716">
<rect width="64.9022" height="64.9022" fill="white" transform="translate(155.413 470) rotate(39.6491)"></rect>
</clipPath>
<clipPath id="clip14_183287_1716">
<rect width="64.9022" height="64.9022" fill="white" transform="translate(149.413) rotate(39.6491)"></rect>
</clipPath>
<clipPath id="clip15_183287_1716">
<rect width="81" height="81" fill="white" transform="translate(99 298.355) rotate(-61.7543)"></rect>
</clipPath>
<clipPath id="clip16_183287_1716">
<rect width="114.808" height="114.808" fill="white" transform="translate(183 127.404) rotate(-81.0292)"></rect>
</clipPath>
<clipPath id="clip17_183287_1716">
<rect width="81" height="81" fill="white" transform="translate(1 384.567) rotate(-38.6297)"></rect>
</clipPath>
<clipPath id="clip18_183287_1716">
<rect width="81" height="81" fill="white" transform="translate(132 795.349) rotate(-39.3417)"></rect>
</clipPath>
<clipPath id="clip19_183287_1716">
<rect width="77.964" height="77.964" fill="white" transform="translate(215 444.352) rotate(-68.1274)"></rect>
</clipPath>
<clipPath id="clip20_183287_1716">
<rect width="53.1796" height="53.1796" fill="white" transform="translate(85.3447 571.463) rotate(106.904)"></rect>
</clipPath>
<clipPath id="clip21_183287_1716">
<rect width="87.3193" height="87.3193" fill="white" transform="translate(189.251 714.777) rotate(-28.1198)"></rect>
</clipPath>
<clipPath id="clip22_183287_1716">
<rect width="79.412" height="70.733" fill="white" transform="translate(70.8027 934) rotate(53.4237)"></rect>
</clipPath>
<clipPath id="clip23_183287_1716">
<rect width="73" height="73" fill="white" transform="translate(264.358 445) rotate(54.4023)"></rect>
</clipPath>
<clipPath id="clip24_183287_1716">
<rect width="108.412" height="108.412" fill="white" transform="translate(160 259.268) rotate(-28.8244)"></rect>
</clipPath>
<clipPath id="clip25_183287_1716">
<rect width="76" height="76" fill="white" transform="translate(13 447.374) rotate(-30.3259)"></rect>
</clipPath>
<clipPath id="clip26_183287_1716">
<rect width="89.5855" height="89.5855" fill="white" transform="translate(187 339.233) rotate(-30.3259)"></rect>
</clipPath>
<clipPath id="clip27_183287_1716">
<rect width="109.467" height="109.467" fill="white" transform="translate(94 101.272) rotate(-30.3259)"></rect>
</clipPath>
<clipPath id="clip28_183287_1716">
<rect width="86.4966" height="86.4966" fill="white" transform="translate(52 573.519) rotate(-32.5349)"></rect>
</clipPath>
<clipPath id="clip29_183287_1716">
<rect width="76" height="76" fill="white" transform="translate(164 655.702) rotate(-28.876)"></rect>
</clipPath>
<clipPath id="clip30_183287_1716">
<rect width="84.6932" height="92.9036" fill="white" transform="translate(125 896.672) rotate(-54.177)"></rect>
</clipPath>
<clipPath id="clip31_183287_1716">
<rect width="81" height="81" fill="white" transform="translate(0 892.198) rotate(-41.9984)"></rect>
</clipPath>
</defs>
</svg>