<svg width="636" height="216" viewBox="0 0 636 216" fill="none" xmlns="http://www.w3.org/2000/svg">
<path d="M54.6109 204.146C50.945 204.334 47.8517 201.447 47.7959 197.777C46.8913 138.284 47.7955 78.7501 50.505 19.4171C50.6013 17.308 52.4898 15.7392 54.5812 16.0281C57.3421 16.4094 59.3557 18.8335 59.2296 21.6178C56.5114 81.6065 55.6548 141.801 56.6637 201.947C56.6833 203.113 55.7757 204.086 54.6109 204.146Z" fill="#CC5633"/>
<path d="M80.378 146.254C84.0281 146.384 87.0842 143.51 87.1592 139.858C87.9862 99.586 87.088 59.2891 84.4678 19.1239C84.338 17.1334 82.5866 15.6472 80.601 15.8373C77.737 16.1114 75.6127 18.6153 75.7967 21.4865C78.4101 62.2489 79.2346 103.146 78.2665 144.012C78.2381 145.211 79.179 146.211 80.378 146.254Z" fill="#AB71DB"/>
<path d="M107.844 16.3395C105.781 15.9004 103.833 17.4604 103.812 19.5692C103.269 74.1697 103.348 128.859 104.05 183.422C104.089 186.49 107.022 188.688 109.979 187.868C112.028 187.299 113.436 185.42 113.408 183.294C112.704 129.899 112.611 76.3764 113.132 22.9395C113.163 19.7618 110.952 17.001 107.844 16.3395Z" fill="#33A5CC"/>
<path fill-rule="evenodd" clip-rule="evenodd" d="M132.652 20.8941C132.738 17.7491 135.42 15.3173 138.561 15.5003C140.393 15.6071 141.802 17.1605 141.744 18.9951C141.307 32.7045 141.426 46.4328 142.102 60.1287C144.987 104.238 145.99 148.502 145.106 192.737C145.031 196.489 141.89 199.443 138.139 199.305C136.911 199.259 135.948 198.235 135.976 197.006C137.015 151.634 136.053 106.225 133.092 60.9797L133.097 60.9792C132.434 47.6327 132.286 34.2559 132.652 20.8941Z" fill="#2AAA74"/>
<rect x="126" y="141.48" width="28" height="10" rx="5" fill="#2AAA74"/>
<rect x="128" y="151.48" width="28" height="10" rx="5" fill="#2AAA74"/>
<rect x="128" y="161.48" width="28" height="10" rx="5" fill="#2AAA74"/>
<rect x="127" y="171.48" width="28" height="10" rx="5" fill="#2AAA74"/>
<rect x="126" y="181.48" width="28" height="10" rx="5" fill="#2AAA74"/>
<rect x="126" y="191.48" width="28" height="10" rx="5" fill="#2AAA74"/>
<rect x="38.4565" y="51.4902" width="28" height="10" rx="5" fill="#CC5633"/>
<rect x="40.4565" y="61.4902" width="28" height="10" rx="5" fill="#CC5633"/>
<path d="M229.927 143.277C226.445 143.277 223.425 142.608 220.868 141.269C218.356 139.885 216.416 138.033 215.05 135.713C213.683 133.347 213 130.737 213 127.881V113.257C213 110.427 215.294 108.133 218.124 108.133C220.954 108.133 223.249 110.427 223.249 113.257V127.613C223.249 128.818 223.535 129.933 224.108 130.96C224.681 131.942 225.453 132.745 226.423 133.37C227.436 133.95 228.582 134.24 229.861 134.24C231.095 134.24 232.197 133.95 233.167 133.37C234.181 132.745 234.974 131.942 235.547 130.96C236.12 129.933 236.407 128.818 236.407 127.613V113.257C236.407 110.427 238.701 108.133 241.531 108.133C244.361 108.133 246.655 110.427 246.655 113.257V127.881C246.655 130.737 245.994 133.347 244.672 135.713C243.349 138.033 241.432 139.885 238.919 141.269C236.451 142.608 233.453 143.277 229.927 143.277ZM258.161 142.474C255.312 142.474 253.003 140.165 253.003 137.316V113.29C253.003 110.442 255.312 108.133 258.161 108.133C261.009 108.133 263.318 110.442 263.318 113.29V137.316C263.318 140.165 261.009 142.474 258.161 142.474ZM258.161 104.25C256.53 104.25 255.119 103.648 253.929 102.443C252.739 101.238 252.144 99.8098 252.144 98.1586C252.144 96.5074 252.739 95.0793 253.929 93.8744C255.119 92.6248 256.53 92 258.161 92C259.791 92 261.202 92.6248 262.392 93.8744C263.582 95.0793 264.177 96.5074 264.177 98.1586C264.177 99.8098 263.582 101.238 262.392 102.443C261.202 103.648 259.791 104.25 258.161 104.25ZM287.421 107.33C290.286 107.33 292.821 107.798 295.025 108.735C297.273 109.628 299.169 110.922 300.711 112.618C302.298 114.269 303.51 116.233 304.348 118.509C305.185 120.74 305.604 123.217 305.604 125.939C305.604 129.331 304.899 132.343 303.488 134.976C302.122 137.565 300.226 139.595 297.802 141.068C295.378 142.541 292.556 143.277 289.338 143.277C287.972 143.277 286.672 143.099 285.437 142.742C284.247 142.384 283.145 141.871 282.131 141.202C281.18 140.545 280.378 139.739 279.724 138.782C279.699 138.747 279.659 138.725 279.616 138.725C279.544 138.725 279.486 138.783 279.486 138.854V151.876C279.486 154.706 277.192 157 274.362 157C271.532 157 269.238 154.706 269.238 151.876V125.939C269.238 122.146 269.987 118.866 271.486 116.099C272.985 113.332 275.1 111.19 277.834 109.673C280.566 108.111 283.762 107.33 287.421 107.33ZM287.421 116.3C285.834 116.3 284.446 116.701 283.255 117.505C282.109 118.263 281.228 119.334 280.611 120.718C279.993 122.057 279.685 123.574 279.685 125.27C279.685 126.966 279.993 128.483 280.611 129.822C281.228 131.161 282.109 132.232 283.255 133.035C284.446 133.794 285.834 134.173 287.421 134.173C289.008 134.173 290.374 133.794 291.521 133.035C292.667 132.232 293.548 131.161 294.165 129.822C294.826 128.483 295.157 126.966 295.157 125.27C295.157 123.574 294.826 122.057 294.165 120.718C293.548 119.334 292.667 118.263 291.521 117.505C290.374 116.701 289.008 116.3 287.421 116.3ZM327.271 143.277C323.789 143.277 320.77 142.608 318.213 141.269C315.7 139.885 313.761 138.033 312.394 135.713C311.028 133.347 310.345 130.737 310.345 127.881V113.257C310.345 110.427 312.639 108.133 315.469 108.133C318.299 108.133 320.593 110.427 320.593 113.257V127.613C320.593 128.818 320.88 129.933 321.453 130.96C322.026 131.942 322.797 132.745 323.767 133.37C324.781 133.95 325.927 134.24 327.205 134.24C328.44 134.24 329.542 133.95 330.511 133.37C331.525 132.745 332.319 131.942 332.892 130.96C333.465 129.933 333.751 128.818 333.751 127.613V113.257C333.751 110.427 336.046 108.133 338.876 108.133C341.706 108.133 344 110.427 344 113.257V127.881C344 130.737 343.339 133.347 342.016 135.713C340.694 138.033 338.776 139.885 336.264 141.269C333.795 142.608 330.798 143.277 327.271 143.277Z" fill="#203152"/>
<path d="M365.487 142.67C361.915 142.67 358.744 141.927 355.976 140.441C353.207 138.909 351.019 136.86 349.411 134.292C347.804 131.68 347 128.707 347 125.374C347 122.041 347.804 119.091 349.411 116.524C351.019 113.911 353.207 111.839 355.976 110.308C358.744 108.776 361.915 108.011 365.487 108.011H366.22C368.664 108.011 370.645 109.992 370.645 112.436C370.645 114.88 368.664 116.861 366.22 116.861H365.889C364.148 116.861 362.652 117.244 361.401 118.01C360.151 118.731 359.169 119.744 358.454 121.05C357.784 122.311 357.449 123.753 357.449 125.374C357.449 126.996 357.784 128.46 358.454 129.766C359.169 131.027 360.151 132.04 361.401 132.806C362.652 133.527 364.148 133.887 365.889 133.887H366.254C368.679 133.887 370.645 135.853 370.645 138.279C370.645 140.704 368.679 142.67 366.254 142.67H365.487ZM388.867 143.481C385.831 143.481 383.151 142.693 380.829 141.116C378.507 139.54 376.699 137.423 375.404 134.765C374.109 132.063 373.461 129.023 373.461 125.644C373.461 122.131 374.22 119.001 375.739 116.253C377.257 113.461 379.4 111.254 382.169 109.632C384.982 108.011 388.287 107.2 392.083 107.2C395.923 107.2 399.183 108.011 401.862 109.632C404.586 111.209 406.663 113.393 408.092 116.186C409.565 118.933 410.302 122.019 410.302 125.442V137.579C410.302 140.391 408.023 142.67 405.211 142.67H402.891C401.361 142.67 400.121 141.43 400.121 139.9V137.296C400.121 137.205 400.046 137.13 399.954 137.13C399.892 137.13 399.835 137.165 399.806 137.22C399.188 138.401 398.399 139.474 397.441 140.441C396.459 141.386 395.253 142.13 393.824 142.67C392.44 143.211 390.788 143.481 388.867 143.481ZM391.949 134.428C393.511 134.428 394.874 134.045 396.035 133.279C397.24 132.468 398.156 131.365 398.781 129.968C399.406 128.572 399.719 127.018 399.719 125.307C399.719 123.64 399.406 122.131 398.781 120.78C398.156 119.429 397.24 118.37 396.035 117.605C394.874 116.794 393.511 116.388 391.949 116.388C390.341 116.388 388.934 116.794 387.729 117.605C386.523 118.37 385.607 119.429 384.982 120.78C384.357 122.131 384.045 123.64 384.045 125.307C384.045 127.018 384.357 128.572 384.982 129.968C385.607 131.365 386.523 132.468 387.729 133.279C388.934 134.045 390.341 134.428 391.949 134.428ZM421.832 142.67C418.965 142.67 416.64 140.346 416.64 137.479V122.199C416.64 119.361 417.288 116.816 418.583 114.564C419.923 112.267 421.82 110.465 424.277 109.159C426.733 107.853 429.657 107.2 433.051 107.2C434.748 107.2 436.311 107.403 437.74 107.808C439.169 108.168 440.464 108.686 441.625 109.362C442.809 109.981 443.82 110.73 444.66 111.61C444.69 111.641 444.731 111.659 444.775 111.659C444.817 111.659 444.857 111.642 444.887 111.612C445.769 110.732 446.781 109.982 447.922 109.362C449.127 108.686 450.445 108.168 451.874 107.808C453.348 107.403 454.932 107.2 456.63 107.2C460.023 107.2 462.949 107.853 465.405 109.159C467.86 110.465 469.759 112.267 471.099 114.564C472.438 116.816 473.108 119.361 473.108 122.199V137.445C473.108 140.331 470.769 142.67 467.883 142.67C464.998 142.67 462.659 140.331 462.659 137.445V122.537C462.659 121.411 462.368 120.397 461.788 119.496C461.252 118.55 460.515 117.785 459.577 117.199C458.64 116.614 457.568 116.321 456.362 116.321C455.156 116.321 454.062 116.614 453.08 117.199C452.142 117.785 451.405 118.55 450.869 119.496C450.333 120.397 450.065 121.411 450.065 122.537V137.479C450.065 140.346 447.741 142.67 444.874 142.67C442.007 142.67 439.683 140.346 439.683 137.479V122.537C439.683 121.411 439.392 120.397 438.812 119.496C438.276 118.55 437.517 117.785 436.535 117.199C435.597 116.614 434.525 116.321 433.319 116.321C432.114 116.321 431.02 116.614 430.037 117.199C429.099 117.785 428.362 118.55 427.827 119.496C427.291 120.397 427.023 121.411 427.023 122.537V137.479C427.023 140.346 424.699 142.67 421.832 142.67ZM493.27 143.481C490.234 143.481 487.555 142.693 485.232 141.116C482.91 139.54 481.101 137.423 479.806 134.765C478.512 132.063 477.864 129.023 477.864 125.644C477.864 122.131 478.623 119.001 480.141 116.253C481.66 113.461 483.803 111.254 486.572 109.632C489.385 108.011 492.689 107.2 496.485 107.2C500.325 107.2 503.586 108.011 506.265 109.632C508.989 111.209 511.066 113.393 512.494 116.186C513.968 118.933 514.705 122.019 514.705 125.442V137.579C514.705 140.391 512.426 142.67 509.614 142.67H507.293C505.764 142.67 504.523 141.43 504.523 139.9V137.296C504.523 137.205 504.449 137.13 504.357 137.13C504.295 137.13 504.238 137.165 504.209 137.22C503.591 138.401 502.802 139.474 501.844 140.441C500.861 141.386 499.656 142.13 498.227 142.67C496.842 143.211 495.191 143.481 493.27 143.481ZM496.351 134.428C497.914 134.428 499.277 134.045 500.437 133.279C501.643 132.468 502.559 131.365 503.184 129.968C503.808 128.572 504.121 127.018 504.121 125.307C504.121 123.64 503.808 122.131 503.184 120.78C502.559 119.429 501.643 118.37 500.437 117.605C499.277 116.794 497.914 116.388 496.351 116.388C494.744 116.388 493.337 116.794 492.131 117.605C490.926 118.37 490.01 119.429 489.385 120.78C488.76 122.131 488.447 123.64 488.447 125.307C488.447 127.018 488.76 128.572 489.385 129.968C490.01 131.365 490.926 132.468 492.131 133.279C493.337 134.045 494.744 134.428 496.351 134.428ZM538.157 162.2C535.29 162.2 532.966 159.876 532.966 157.009V150.038C532.966 145.825 529.855 142.427 526.536 139.833C524.749 138.391 523.388 136.657 522.45 134.63C521.512 132.558 521.043 130.329 521.043 127.942V113.202C521.043 110.335 523.367 108.011 526.234 108.011C529.101 108.011 531.426 110.335 531.426 113.202V127.604C531.426 128.82 531.715 129.946 532.296 130.982C532.877 132.018 533.658 132.851 534.641 133.482C535.668 134.067 536.806 134.36 538.057 134.36C539.352 134.36 540.49 134.067 541.473 133.482C542.5 132.851 543.304 132.018 543.885 130.982C544.465 129.946 544.755 128.82 544.755 127.604V113.202C544.755 110.335 547.079 108.011 549.947 108.011C552.814 108.011 555.138 110.335 555.138 113.202V127.942C555.138 130.329 554.669 132.536 553.731 134.563C552.838 136.59 551.499 138.324 549.712 139.765C546.501 142.423 543.349 145.753 543.349 149.922V157.009C543.349 159.876 541.024 162.2 538.157 162.2ZM578.582 143.481C575.054 143.481 571.884 142.693 569.07 141.116C566.257 139.54 564.025 137.378 562.372 134.63C560.764 131.883 559.961 128.797 559.961 125.374C559.961 121.906 560.764 118.821 562.372 116.118C564.025 113.371 566.257 111.209 569.07 109.632C571.884 108.011 575.054 107.2 578.582 107.2C582.11 107.2 585.258 108.011 588.027 109.632C590.84 111.209 593.05 113.371 594.658 116.118C596.311 118.821 597.136 121.906 597.136 125.374C597.136 128.797 596.311 131.883 594.658 134.63C593.05 137.378 590.84 139.54 588.027 141.116C585.213 142.693 582.065 143.481 578.582 143.481ZM578.582 134.36C580.235 134.36 581.663 133.955 582.869 133.144C584.075 132.333 585.012 131.252 585.682 129.901C586.352 128.55 586.687 127.018 586.687 125.307C586.687 123.64 586.352 122.131 585.682 120.78C585.012 119.429 584.075 118.348 582.869 117.537C581.663 116.726 580.235 116.321 578.582 116.321C576.929 116.321 575.479 116.726 574.228 117.537C573.022 118.348 572.085 119.429 571.415 120.78C570.745 122.131 570.41 123.64 570.41 125.307C570.41 127.018 570.745 128.55 571.415 129.901C572.085 131.252 573.022 132.333 574.228 133.144C575.479 133.955 576.929 134.36 578.582 134.36ZM618.842 142.67C615.27 142.67 612.099 141.927 609.331 140.441C606.562 138.909 604.374 136.86 602.766 134.292C601.159 131.68 600.355 128.707 600.355 125.374C600.355 122.041 601.159 119.091 602.766 116.524C604.374 113.911 606.562 111.839 609.331 110.308C612.099 108.776 615.27 108.011 618.842 108.011H619.575C622.019 108.011 624 109.992 624 112.436C624 114.88 622.019 116.861 619.575 116.861H619.244C617.503 116.861 616.007 117.244 614.756 118.01C613.506 118.731 612.524 119.744 611.809 121.05C611.139 122.311 610.804 123.753 610.804 125.374C610.804 126.996 611.139 128.46 611.809 129.766C612.524 131.027 613.506 132.04 614.756 132.806C616.007 133.527 617.503 133.887 619.244 133.887H619.608C622.034 133.887 624 135.853 624 138.279C624 140.704 622.034 142.67 619.608 142.67H618.842Z" fill="#203152"/>
<path d="M14.4242 39.0464C45.4866 35.3991 77.0597 35.0244 108.264 37.9355L108.262 37.947C145.994 41.4875 184.169 41.113 221.756 36.8383C224.67 36.5069 227.376 38.33 227.946 41.037C228.259 42.5207 227.173 43.9445 225.577 44.1329C186.3 48.769 146.372 49.2396 106.919 45.5285L106.92 45.5241C77.4409 42.7832 47.6241 43.0624 18.2561 46.3497C15.3391 46.6762 12.6284 44.8551 12.0544 42.1465C11.7396 40.6612 12.8257 39.2341 14.4242 39.0464Z" fill="url(#paint0_linear_645_147)"/>
<path d="M207.365 98.2714C205.007 92.7084 201.389 87.7692 196.796 83.8436C192.203 79.9179 186.761 77.1131 180.898 75.6504L177.991 87.3028C182.048 88.3151 185.814 90.2562 188.993 92.973C192.171 95.6897 194.675 99.1079 196.307 102.958L207.365 98.2714Z" fill="#203152"/>
<path d="M206.43 149.195C206.528 141.575 204.475 134.082 200.507 127.577C196.538 121.071 190.814 115.818 183.993 112.42L178.642 123.161C183.442 125.552 187.47 129.249 190.262 133.827C193.055 138.404 194.5 143.677 194.431 149.039L206.43 149.195Z" fill="#203152"/>
<path d="M164.261 109.461C161.075 114.461 159.851 120.463 160.827 126.311C161.803 132.159 164.91 137.439 169.547 141.133C174.185 144.827 180.026 146.674 185.944 146.317C191.862 145.96 197.439 143.425 201.599 139.201L193.383 131.109C191.222 133.304 188.325 134.621 185.25 134.806C182.176 134.991 179.141 134.032 176.732 132.113C174.323 130.194 172.709 127.451 172.202 124.413C171.695 121.375 172.33 118.256 173.986 115.659L164.261 109.461Z" fill="#203152"/>
<path d="M175.098 56.4577C175.149 57.3905 175.194 58.3238 175.235 59.2576C175.86 76.8841 172.047 94.3713 164.215 109.657L173.858 116.021C183.26 97.6689 187.566 76.5247 186.211 55.3517L186.209 55.3519C185.512 42.66 183.932 30.0686 181.486 17.7122C180.644 13.4597 176.216 10.9931 172.129 12.3939C170.378 12.994 169.37 14.8184 169.763 16.6337C172.568 29.6068 174.351 42.878 175.088 56.2682L175.086 56.2683C175.09 56.3315 175.094 56.3946 175.098 56.4577Z" fill="#203152"/>
<path d="M195.821 204.354C197.571 204.884 199.402 203.811 199.776 202.021C203.453 184.443 205.697 166.506 206.47 148.504L194.445 148.409C193.797 163.485 192.052 178.514 189.235 193.299C188.315 198.127 191.116 202.93 195.821 204.354Z" fill="#203152"/>
<path d="M165.237 114.094C169.297 117.68 173.804 120.727 178.644 123.16L184.035 112.434C180.117 110.464 176.47 107.998 173.183 105.095L165.237 114.094Z" fill="#203152"/>
<path d="M202.262 137.408C207.149 131.113 209.991 123.472 210.404 115.513C210.817 107.554 208.783 99.6601 204.574 92.8929L194.38 99.2327C197.294 103.917 198.702 109.381 198.416 114.89C198.13 120.399 196.163 125.689 192.78 130.046L202.262 137.408Z" fill="#203152"/>
<path d="M160.968 111.421C159.18 109.233 157.822 106.713 156.981 103.992C155.902 100.502 155.711 96.8038 156.417 93.2314C156.455 93.0404 156.495 92.8499 156.538 92.6602C156.577 92.4866 156.618 92.3133 156.662 92.1404C157.277 89.7096 158.325 87.4058 159.756 85.3394C161.399 82.9661 163.514 80.9572 165.969 79.4381C167.879 78.256 169.963 77.3902 172.14 76.8701C170.485 89.1142 166.688 100.863 160.968 111.421Z" fill="#203152"/>
<defs>
<linearGradient id="paint0_linear_645_147" x1="12" y1="41.8176" x2="228.281" y2="41.8175" gradientUnits="userSpaceOnUse">
<stop offset="0.193722" stop-color="#CC5633"/>
<stop offset="0.319814" stop-color="#AB71DB"/>
<stop offset="0.445588" stop-color="#33A5CC"/>
<stop offset="0.57791" stop-color="#2AAA74"/>
<stop offset="0.775696" stop-color="#203152"/>
</linearGradient>
</defs>
</svg>
